<?xml version="1.0" encoding="utf-8"?>
<!-- Generator: Adobe Illustrator 21.0.2, SVG Export Plug-In . SVG Version: 6.00 Build 0)  -->
<svg version="1.1" id="Layer_1" xmlns="http://www.w3.org/2000/svg" xmlns:xlink="http://www.w3.org/1999/xlink" x="0px" y="0px"
	 viewBox="0 0 194 248" style="enable-background:new 0 0 194 248;" xml:space="preserve">
<style type="text/css">
	.st0{fill:#F4DF4A;}
	.st1{fill:#C69C6D;}
	.st2{fill:#F4DF4A;stroke:#F4DF4A;stroke-width:2;stroke-miterlimit:10;}
</style>
<g>
	<g>
		<path class="st0" d="M193.5,96.8C193.5,43.3,150.1,0,96.7,0S-0.1,43.3-0.1,96.8c0,0.4,96.8,151.3,96.8,151.3l96.9-151.2
			C193.6,96.9,193.5,96.8,193.5,96.8z M95.8,115.4c-17.7,0-32.1-14.7-32.1-32.8c0-18.1,14.4-32.8,32.1-32.8
			c17.7,0,32.1,14.7,32.1,32.8C127.9,100.7,113.5,115.4,95.8,115.4z"/>
	</g>
	<polygon class="st1" points="96.7,248.5 128.7,197.8 116.5,203.8 106.6,197.7 96.7,203.8 84.8,197.7 76.9,203.8 64.7,197.7 	"/>
	<polygon points="96.7,248.1 108.1,230 103.8,232.1 100.2,229.9 96.7,232.1 92.4,229.9 89.6,232.1 85.2,229.9 	"/>
</g>
<text transform="matrix(1 0 0 1 -672.1003 123.7871)" style="font-family:'Roboto-Light'; font-size:40.5865px;">NULL CLASS</text>
<text transform="matrix(1 0 0 1 -715.8553 284.7153)" style="font-family:'Roboto-Light'; font-size:33.4715px;">NULL      CLASS</text>
<g>
	<g>
		<path class="st0" d="M-575.4,237.7c0.3-0.5,0.4-1,0.4-1.5c-0.4-20.9-15.8-38.2-36.8-38.2c-21.3,0-41.7,17.5-38.5,38.5
			c0.4,2.5,38.6,60.2,38.6,60.2S-579.5,244.3-575.4,237.7z M-612.2,243.9c-7.1,0-12.8-5.8-12.8-13.1c0-7.2,5.7-13.1,12.8-13.1
			s12.8,5.8,12.8,13.1C-599.4,238.1-605.1,243.9-612.2,243.9z"/>
	</g>
	<polygon class="st1" points="-611.8,296.9 -599.1,276.8 -603.9,279.1 -607.9,276.7 -611.8,279.1 -616.6,276.7 -619.7,279.1 
		-624.6,276.7 	"/>
	<polygon points="-611.8,296.8 -607.3,289.6 -609,290.4 -610.4,289.5 -611.8,290.4 -613.5,289.5 -614.6,290.4 -616.4,289.5 	"/>
</g>
<text transform="matrix(1 0 0 1 -672.8553 350.8081)" style="font-family:'Roboto-Light'; font-size:33.4715px;">NULL CLASS</text>
<g>
	<g>
		<path class="st0" d="M-677,331.9c0-12-9.7-21.7-21.7-21.7s-21.7,9.7-21.7,21.7c0,0.1,21.7,33.9,21.7,33.9L-677,331.9
			C-677,331.9-677,331.9-677,331.9z M-698.9,336c-4,0-7.2-3.3-7.2-7.3s3.2-7.3,7.2-7.3c4,0,7.2,3.3,7.2,7.3S-694.9,336-698.9,336z"
			/>
	</g>
	<polygon class="st1" points="-698.7,365.8 -691.5,354.5 -694.3,355.8 -696.5,354.5 -698.7,355.8 -701.4,354.5 -703.1,355.8 
		-705.9,354.5 	"/>
	<polygon points="-698.7,365.8 -696.1,361.7 -697.1,362.2 -697.9,361.7 -698.7,362.2 -699.6,361.7 -700.3,362.2 -701.3,361.7 	"/>
</g>
<path class="st0" d="M-505.8-292.7c-0.1-0.3-0.4-0.6-0.7-0.6l-101.9-0.3c-0.6,0-1,0.7-0.6,1.2l51.2,82c0.3,0.5,1,0.5,1.3,0
	l49.5-79.8c0.2-0.7,0.5-1.4,0.9-2C-506-292.4-505.9-292.5-505.8-292.7z"/>
<path class="st2" d="M-508.4-291h-98.1c-1.4,0-2.5-1.2-2.4-2.5c1.3-27,23.6-48.5,51-48.5c27.7,0,50.3,22.1,51,49.6
	C-507-291.6-507.6-291-508.4-291z"/>
</svg>
